# xmcd
#
# Track frame offsets:
#	150
#	14619
#	31180
#	46467
#	68972
#	87696
#	102074
#	118523
#	130409
#	142353
#	152728
#	171298
#	183764
#
# Disc length: 2684 seconds
# Revision: 0
# Processed by: cddbd v1.5.2PL0 Copyright (c) Steve Scherf et al.
# Submitted via: dBpowerAMP V12.0
#
DISCID=b80a7a0d
DTITLE=Andy Statman - Monroe Bus
DYEAR=2019
DGENRE=Bluegrass
TTITLE0=Monroe Bus
TTITLE1=Reminiscence
TTITLE2=Ice Cream on the Moon
TTITLE3=Ain't No Place for a Girl Like You
TTITLE4=Reflections
TTITLE5=Old East River Road
TTITLE6=Brooklyn Hop
TTITLE7=Lakewood Waltz
TTITLE8=Statman Romp
TTITLE9=Mockingbird
TTITLE10=Brorby's Blues
TTITLE11=Raw Ride
TTITLE12=Burger and Fries
EXTD=
EXTT0=
EXTT1=
EXTT2=
EXTT3=
EXTT4=
EXTT5=
EXTT6=
EXTT7=
EXTT8=
EXTT9=
EXTT10=
EXTT11=
EXTT12=
PLAYORDER=
